<svg width="14" height="15" viewBox="0 0 14 15" fill="none" xmlns="http://www.w3.org/2000/svg">
<path fill-rule="evenodd" clip-rule="evenodd" d="M6.96714 0.774231C7.05558 0.774231 7.1404 0.80938 7.20292 0.87194L13.5769 7.25019C13.6722 7.34554 13.7007 7.4889 13.6491 7.61343C13.5975 7.73796 13.476 7.81915 13.3412 7.81915H0.593109C0.458308 7.81915 0.336777 7.73796 0.28517 7.61343C0.233563 7.4889 0.262041 7.34554 0.357328 7.25019L6.73136 0.87194C6.79387 0.80938 6.87869 0.774231 6.96714 0.774231ZM1.39747 7.15248H12.5368L6.96714 1.57913L1.39747 7.15248Z" fill="#DFEEFD"/>
<path d="M0.28517 7.3582C0.336777 7.23367 0.458308 7.15248 0.593109 7.15248H13.3412C13.476 7.15248 13.5975 7.23367 13.6491 7.3582C13.7007 7.48274 13.6722 7.62609 13.5769 7.72144L7.20292 14.0997C7.1404 14.1623 7.05558 14.1974 6.96714 14.1974C6.87869 14.1974 6.79387 14.1623 6.73136 14.0997L0.357328 7.72144C0.262041 7.62609 0.233563 7.48274 0.28517 7.3582Z" fill="#DFEEFD"/>
</svg>
