<svg width="12" height="18" viewBox="0 0 12 18" fill="none" xmlns="http://www.w3.org/2000/svg">
<path d="M2.24935 3.99996C2.01923 3.99996 1.83268 4.18651 1.83268 4.41663C1.83268 4.64674 2.01923 4.83329 2.24935 4.83329H5.64102C5.87113 4.83329 6.05768 4.64674 6.05768 4.41663C6.05768 4.18651 5.87113 3.99996 5.64102 3.99996H2.24935Z" fill="#1F2937"/>
<path d="M2.24935 5.66663C2.01923 5.66663 1.83268 5.85317 1.83268 6.08329C1.83268 6.31341 2.01923 6.49996 2.24935 6.49996H5.64102C5.87113 6.49996 6.05768 6.31341 6.05768 6.08329C6.05768 5.85317 5.87113 5.66663 5.64102 5.66663H2.24935Z" fill="#1F2937"/>
<path d="M2.24935 7.33329C2.01923 7.33329 1.83268 7.51984 1.83268 7.74996C1.83268 7.98008 2.01923 8.16663 2.24935 8.16663H9.74935C9.97947 8.16663 10.166 7.98008 10.166 7.74996C10.166 7.51984 9.97947 7.33329 9.74935 7.33329H2.24935Z" fill="#1F2937"/>
<path fill-rule="evenodd" clip-rule="evenodd" d="M2.24935 9.83329C2.01923 9.83329 1.83268 10.0198 1.83268 10.25V14.4166C1.83268 14.6467 2.01923 14.8333 2.24935 14.8333H9.74935C9.97947 14.8333 10.166 14.6467 10.166 14.4166V10.25C10.166 10.0198 9.97947 9.83329 9.74935 9.83329H2.24935ZM2.66602 14V10.6666H9.33268V14H2.66602Z" fill="#1F2937"/>
<path fill-rule="evenodd" clip-rule="evenodd" d="M11.8327 4.7618C11.8327 4.43028 11.701 4.11234 11.4666 3.87792L8.62139 1.03274C8.38697 0.798322 8.06903 0.666626 7.7375 0.666626H1.41602C0.72566 0.666626 0.166016 1.22627 0.166016 1.91663V16.0833C0.166016 16.7736 0.72566 17.3333 1.41602 17.3333H10.5827C11.273 17.3333 11.8327 16.7736 11.8327 16.0833V4.7618ZM1.41602 1.49996C1.1859 1.49996 0.999349 1.68651 0.999349 1.91663V16.0833C0.999349 16.3134 1.1859 16.5 1.41602 16.5H10.5827C10.8128 16.5 10.9993 16.3134 10.9993 16.0833V4.83329H8.24935C7.92718 4.83329 7.66602 4.57213 7.66602 4.24996V1.49996H1.41602ZM8.49935 2.08922L10.4101 3.99996H8.49935V2.08922Z" fill="#1F2937"/>
</svg>
