<svg width="15" height="18" viewBox="0 0 15 18" fill="none" xmlns="http://www.w3.org/2000/svg">
<path fill-rule="evenodd" clip-rule="evenodd" d="M1.16732 1.91663C1.16732 1.68651 1.35387 1.49996 1.58398 1.49996H7.83398V4.25001C7.83398 4.57217 8.09515 4.83334 8.41732 4.83334H11.1673V8.58329C11.1673 8.81341 11.3539 8.99996 11.584 8.99996C11.8141 8.99996 12.0007 8.81341 12.0007 8.58329V4.59963C12.0007 4.25639 11.8595 3.92825 11.6103 3.69219L8.77827 1.00919C8.54609 0.789222 8.23842 0.666626 7.91859 0.666626H1.58398C0.893628 0.666626 0.333984 1.22627 0.333984 1.91663V15.25C0.333984 15.9403 0.893628 16.5 1.58398 16.5H7.00065C7.23077 16.5 7.41732 16.3134 7.41732 16.0833C7.41732 15.8532 7.23077 15.6666 7.00065 15.6666H1.58398C1.35387 15.6666 1.16732 15.4801 1.16732 15.25V1.91663ZM10.5781 4L8.66732 2.08926V4H10.5781Z" fill="#1F2937"/>
<path d="M2.41732 5.24996C2.41732 5.01984 2.60387 4.83329 2.83398 4.83329H5.80898C6.0391 4.83329 6.22565 5.01984 6.22565 5.24996C6.22565 5.48008 6.0391 5.66663 5.80898 5.66663H2.83398C2.60387 5.66663 2.41732 5.48008 2.41732 5.24996Z" fill="#1F2937"/>
<path d="M2.83398 8.99996C2.60387 8.99996 2.41732 9.18651 2.41732 9.41663C2.41732 9.64674 2.60387 9.83329 2.83398 9.83329H6.16732C6.39744 9.83329 6.58398 9.64674 6.58398 9.41663C6.58398 9.18651 6.39744 8.99996 6.16732 8.99996H2.83398Z" fill="#1F2937"/>
<path d="M2.41732 7.33329C2.41732 7.10317 2.60387 6.91663 2.83398 6.91663H9.08396C9.31407 6.91663 9.50062 7.10317 9.50062 7.33329C9.50062 7.56341 9.31407 7.74996 9.08396 7.74996H2.83398C2.60387 7.74996 2.41732 7.56341 2.41732 7.33329Z" fill="#1F2937"/>
<path d="M12.7119 12.6279C12.8747 12.4652 12.8747 12.2014 12.7119 12.0387C12.5492 11.8759 12.2854 11.8759 12.1227 12.0387L10.7507 13.4107L10.2119 12.872C10.0492 12.7093 9.78541 12.7093 9.62269 12.872C9.45997 13.0347 9.45997 13.2985 9.62269 13.4613L10.456 14.2946C10.6187 14.4573 10.8826 14.4573 11.0453 14.2946L12.7119 12.6279Z" fill="#1F2937"/>
<path fill-rule="evenodd" clip-rule="evenodd" d="M8.00026 9.70782C10.0941 9.31956 12.2405 9.31956 14.3344 9.70782C14.5169 9.74168 14.6551 9.89225 14.6731 10.0771L14.8881 12.2817C15.0152 13.4704 14.7251 14.6667 14.0678 15.6625C13.4101 16.659 12.4261 17.3919 11.2867 17.7325C11.2088 17.7558 11.1258 17.7558 11.048 17.7325C9.90856 17.3919 8.92457 16.659 8.26684 15.6625C7.60955 14.6667 7.31948 13.4704 7.44651 12.2817L7.66153 10.0771C7.67955 9.89225 7.81769 9.74168 8.00026 9.70782ZM8.46019 10.4731L8.27572 12.3645L8.27531 12.3685C8.16832 13.3659 8.41165 14.3691 8.96234 15.2035C9.4898 16.0026 10.267 16.5979 11.1673 16.8965C12.0677 16.5979 12.8448 16.0026 13.3723 15.2035C13.923 14.3691 14.1663 13.3659 14.0593 12.3685L14.0589 12.3645L13.8744 10.4731C12.0817 10.1756 10.2529 10.1756 8.46019 10.4731Z" fill="#1F2937"/>
</svg>
