<svg width="18" height="10" viewBox="0 0 18 10" fill="none" xmlns="http://www.w3.org/2000/svg">
<path d="M4.83268 3.75C4.83268 3.51988 4.64613 3.33333 4.41602 3.33333C4.1859 3.33333 3.99935 3.51988 3.99935 3.75V6.25C3.99935 6.48012 4.1859 6.66667 4.41602 6.66667C4.64613 6.66667 4.83268 6.48012 4.83268 6.25V3.75Z" fill="#1F2937"/>
<path d="M13.9993 3.75C13.9993 3.51988 13.8128 3.33333 13.5827 3.33333C13.3526 3.33333 13.166 3.51988 13.166 3.75V6.25C13.166 6.48012 13.3526 6.66667 13.5827 6.66667C13.8128 6.66667 13.9993 6.48012 13.9993 6.25V3.75Z" fill="#1F2937"/>
<path fill-rule="evenodd" clip-rule="evenodd" d="M8.99935 2.5C7.61864 2.5 6.49935 3.61929 6.49935 5C6.49935 6.38071 7.61864 7.5 8.99935 7.5C10.3801 7.5 11.4993 6.38071 11.4993 5C11.4993 3.61929 10.3801 2.5 8.99935 2.5ZM7.33268 5C7.33268 4.07953 8.07887 3.33333 8.99935 3.33333C9.91982 3.33333 10.666 4.07953 10.666 5C10.666 5.92047 9.91982 6.66667 8.99935 6.66667C8.07887 6.66667 7.33268 5.92047 7.33268 5Z" fill="#1F2937"/>
<path fill-rule="evenodd" clip-rule="evenodd" d="M0.666016 0.833333C0.666016 0.373096 1.03911 0 1.49935 0H16.4993C16.9596 0 17.3327 0.373096 17.3327 0.833333V9.16667C17.3327 9.6269 16.9596 10 16.4993 10H1.49935C1.03911 10 0.666016 9.6269 0.666016 9.16667V0.833333ZM15.3208 2.01184C15.6334 2.3244 16.0573 2.5 16.4993 2.5V0.833333H14.8327C14.8327 1.27536 15.0083 1.69928 15.3208 2.01184ZM3.26712 2.6011C3.73596 2.13226 3.99935 1.49637 3.99935 0.833333H13.9993C13.9993 1.49637 14.2627 2.13226 14.7316 2.6011C15.2004 3.06994 15.8363 3.33333 16.4993 3.33333V6.66667C15.8363 6.66667 15.2004 6.93006 14.7316 7.3989C14.2627 7.86774 13.9993 8.50363 13.9993 9.16667H3.99935C3.99935 8.50363 3.73596 7.86774 3.26712 7.3989C2.79828 6.93006 2.16239 6.66667 1.49935 6.66667V3.33333C2.16239 3.33333 2.79828 3.06994 3.26712 2.6011ZM15.3208 7.98816C15.6334 7.6756 16.0573 7.5 16.4993 7.5V9.16667H14.8327C14.8327 8.72464 15.0083 8.30072 15.3208 7.98816ZM2.67786 7.98816C2.99042 8.30072 3.16602 8.72464 3.16602 9.16667H1.49935V7.5C1.94138 7.5 2.3653 7.6756 2.67786 7.98816ZM2.67786 2.01184C2.3653 2.3244 1.94138 2.5 1.49935 2.5V0.833333L3.16602 0.833333C3.16602 1.27536 2.99042 1.69928 2.67786 2.01184Z" fill="#1F2937"/>
</svg>
