<svg width="12" height="13" viewBox="0 0 12 13" fill="none" xmlns="http://www.w3.org/2000/svg">
<path fill-rule="evenodd" clip-rule="evenodd" d="M5.17264 0.67144C5.43368 0.557835 5.71531 0.499207 6 0.499207C6.28469 0.499207 6.56633 0.557835 6.82736 0.67144C7.08834 0.785016 7.32313 0.951108 7.51712 1.15937L11.4437 5.36591C11.8012 5.74986 12.0002 6.25537 12 6.78003V11.2934C12 11.6134 11.8729 11.9203 11.6466 12.1466C11.4203 12.3729 11.1134 12.5 10.7933 12.5H1.20667C0.886639 12.5 0.579719 12.3729 0.353425 12.1466C0.127131 11.9203 1.63583e-07 11.6134 1.63583e-07 11.2934V6.78019C-0.000208125 6.25553 0.198499 5.75014 0.556067 5.36619L4.48273 1.15952C4.67672 0.951267 4.91167 0.785014 5.17264 0.67144ZM6 1.16587C5.80685 1.16587 5.61577 1.20565 5.43867 1.28273C5.26157 1.3598 5.10224 1.47252 4.9706 1.61387L1.04393 5.82054C0.80142 6.08103 0.666499 6.42396 0.666667 6.77987L0.666667 11.2934C0.666667 11.4366 0.72356 11.5739 0.82483 11.6752C0.926099 11.7765 1.06345 11.8334 1.20667 11.8334H4V8.16669C4 7.91913 4.08143 7.67215 4.23998 7.48189C4.40001 7.28985 4.63149 7.16669 4.88889 7.16669H7.11111C7.36851 7.16669 7.59999 7.28985 7.76002 7.48189C7.91857 7.67215 8 7.91913 8 8.16669V11.8334H10.7933C10.9366 11.8334 11.0739 11.7765 11.1752 11.6752C11.2764 11.5739 11.3333 11.4366 11.3333 11.2934V6.78003C11.3335 6.42412 11.1987 6.08121 10.9562 5.82072L7.02966 1.61415C6.89803 1.4728 6.73843 1.3598 6.56133 1.28273C6.38423 1.20565 6.19315 1.16587 6 1.16587ZM4.88889 7.83335C4.85161 7.83335 4.80047 7.85066 4.75213 7.90868C4.7023 7.96846 4.66667 8.06062 4.66667 8.16669V11.8334H7.33333V8.16669C7.33333 8.06062 7.2977 7.96846 7.24787 7.90868C7.19953 7.85066 7.1484 7.83335 7.11111 7.83335H4.88889Z" fill="#DFEEFD"/>
</svg>
