<svg width="18" height="14" viewBox="0 0 18 14" fill="none" xmlns="http://www.w3.org/2000/svg">
<path d="M6.49935 5.16663C6.49935 5.62686 6.12625 5.99996 5.66602 5.99996C5.20578 5.99996 4.83268 5.62686 4.83268 5.16663C4.83268 4.70639 5.20578 4.33329 5.66602 4.33329C6.12625 4.33329 6.49935 4.70639 6.49935 5.16663Z" fill="#1F2937"/>
<path d="M8.99935 5.99996C9.45959 5.99996 9.83268 5.62686 9.83268 5.16663C9.83268 4.70639 9.45959 4.33329 8.99935 4.33329C8.53911 4.33329 8.16602 4.70639 8.16602 5.16663C8.16602 5.62686 8.53911 5.99996 8.99935 5.99996Z" fill="#1F2937"/>
<path d="M12.3327 5.99996C12.7929 5.99996 13.166 5.62686 13.166 5.16663C13.166 4.70639 12.7929 4.33329 12.3327 4.33329C11.8724 4.33329 11.4993 4.70639 11.4993 5.16663C11.4993 5.62686 11.8724 5.99996 12.3327 5.99996Z" fill="#1F2937"/>
<path fill-rule="evenodd" clip-rule="evenodd" d="M7.88111 10.9786C7.89931 10.9725 7.91695 10.9662 7.93398 10.9597C8.39248 11.4945 9.07301 11.8333 9.83268 11.8333H12.1032L14.0724 13.4087C14.1975 13.5087 14.3688 13.5282 14.5132 13.4588C14.6575 13.3895 14.7493 13.2435 14.7493 13.0833V11.8333H14.8327C16.2134 11.8333 17.3327 10.714 17.3327 9.33329C17.3327 8.68238 17.0839 8.08957 16.6763 7.64474C17.094 6.91402 17.3327 6.06769 17.3327 5.16663C17.3327 2.4052 15.0941 0.166626 12.3327 0.166626H5.66602C2.90459 0.166626 0.666016 2.4052 0.666016 5.16663C0.666016 7.64419 2.46775 9.70052 4.83268 10.0974V11.4166C4.83268 11.5506 4.89707 11.6763 5.00572 11.7546C5.11437 11.833 5.25405 11.8543 5.38111 11.8119L7.88111 10.9786ZM5.66602 0.999959C3.36483 0.999959 1.49935 2.86544 1.49935 5.16663C1.49935 7.3399 3.16351 9.12496 5.28675 9.31629C5.50667 9.33611 5.67123 9.52341 5.66592 9.74102L5.66602 9.74996V10.8385L7.49755 10.228C7.39104 9.95022 7.33268 9.64857 7.33268 9.33329C7.33268 7.95258 8.45197 6.83329 9.83268 6.83329H14.8327C15.2584 6.83329 15.6593 6.93971 16.0102 7.1274C16.3224 6.54328 16.4993 5.87607 16.4993 5.16663C16.4993 2.86544 14.6339 0.999959 12.3327 0.999959H5.66602ZM14.3769 11.0023C14.3881 11.0007 14.4011 11 14.416 11H14.8327C15.7532 11 16.4993 10.2538 16.4993 9.33329C16.4993 8.41282 15.7532 7.66663 14.8327 7.66663H9.83268C8.91221 7.66663 8.16602 8.41282 8.16602 9.33329C8.16602 10.2538 8.91221 11 9.83268 11H12.2493C12.3491 11 12.4407 11.035 12.5124 11.0935L13.916 12.2164V11.4166C13.916 11.1865 14.1026 11 14.3327 11C14.3476 11 14.3623 11.0007 14.3769 11.0023Z" fill="#1F2937"/>
</svg>
