<svg width="16" height="16" viewBox="0 0 16 16" fill="none" xmlns="http://www.w3.org/2000/svg">
<path fill-rule="evenodd" clip-rule="evenodd" d="M1.33301 1.66665C1.33301 1.48255 1.48225 1.33331 1.66634 1.33331H6.99967C7.18377 1.33331 7.33301 1.48255 7.33301 1.66665V8.33331C7.33301 8.51741 7.18377 8.66665 6.99967 8.66665H1.66634C1.48225 8.66665 1.33301 8.51741 1.33301 8.33331V1.66665ZM1.99967 1.99998V7.99998H6.66634V1.99998H1.99967Z" fill="#DFEEFD"/>
<path fill-rule="evenodd" clip-rule="evenodd" d="M8.66634 7.66665C8.66634 7.48255 8.81558 7.33331 8.99967 7.33331H14.333C14.5171 7.33331 14.6663 7.48255 14.6663 7.66665V14.3333C14.6663 14.5174 14.5171 14.6666 14.333 14.6666H8.99967C8.81558 14.6666 8.66634 14.5174 8.66634 14.3333V7.66665ZM9.33301 7.99998V14H13.9997V7.99998H9.33301Z" fill="#DFEEFD"/>
<path fill-rule="evenodd" clip-rule="evenodd" d="M1.33301 10.3266C1.33301 10.1425 1.48225 9.99331 1.66634 9.99331H6.99967C7.18377 9.99331 7.33301 10.1425 7.33301 10.3266V14.3266C7.33301 14.5107 7.18377 14.66 6.99967 14.66H1.66634C1.48225 14.66 1.33301 14.5107 1.33301 14.3266V10.3266ZM1.99967 10.66V13.9933H6.66634V10.66H1.99967Z" fill="#DFEEFD"/>
<path d="M8.66634 1.66665C8.66634 1.48255 8.81558 1.33331 8.99967 1.33331H14.333C14.5171 1.33331 14.6663 1.48255 14.6663 1.66665V5.66665C14.6663 5.85074 14.5171 5.99998 14.333 5.99998H8.99967C8.81558 5.99998 8.66634 5.85074 8.66634 5.66665V1.66665Z" fill="#DFEEFD"/>
</svg>
