<svg width="18" height="16" viewBox="0 0 18 16" fill="none" xmlns="http://www.w3.org/2000/svg">
<path d="M13.3537 1.36045C11.8215 0.54573 10.0541 0.287585 8.3528 0.630008C6.65153 0.972431 5.12164 1.89423 4.02389 3.2383C3.04679 4.43465 2.46588 5.89964 2.35298 7.43098L1.37731 6.45531C1.21459 6.29259 0.950773 6.29259 0.788054 6.45531C0.625336 6.61803 0.625336 6.88185 0.788054 7.04457L2.45472 8.71123C2.61744 8.87395 2.88126 8.87395 3.04398 8.71123L4.71064 7.04457C4.87336 6.88185 4.87336 6.61803 4.71064 6.45531C4.54792 6.29259 4.28411 6.29259 4.12139 6.45531L3.19295 7.38375C3.31214 6.06194 3.82389 4.80056 4.66931 3.76544C5.64509 2.57071 7.00499 1.75133 8.51723 1.44696C10.0295 1.14258 11.6005 1.37204 12.9625 2.09624C14.3245 2.82043 15.3932 3.99454 15.9865 5.41845C16.5798 6.84237 16.661 8.42796 16.2161 9.90501C15.7713 11.3821 14.828 12.6591 13.5471 13.5186C12.2661 14.378 10.7268 14.7667 9.19133 14.6183C7.65592 14.4699 6.21947 13.7936 5.12682 12.7048C5.10386 12.6819 5.07852 12.662 5.05137 12.6452C4.91616 12.5065 4.78688 12.3618 4.66352 12.2111C4.5178 12.033 4.25529 12.0067 4.07719 12.1524C3.89909 12.2981 3.87283 12.5607 4.01855 12.7388C4.17728 12.9328 4.3449 13.118 4.52141 13.2945C4.54573 13.3189 4.57274 13.3399 4.60175 13.3572C5.82292 14.5458 7.41325 15.2837 9.11117 15.4478C10.8385 15.6147 12.5703 15.1775 14.0114 14.2106C15.4525 13.2437 16.5136 11.807 17.0141 10.1453C17.5145 8.48364 17.4232 6.69984 16.7558 5.09794C16.0883 3.49604 14.886 2.17517 13.3537 1.36045Z" fill="#1F2937"/>
<path d="M9.41602 3.83327C9.64613 3.83327 9.83268 4.01982 9.83268 4.24994V7.89402L12.1356 10.197C12.2984 10.3597 12.2984 10.6235 12.1356 10.7862C11.9729 10.949 11.7091 10.949 11.5464 10.7862L9.12139 8.36123C9.04325 8.28309 8.99935 8.17711 8.99935 8.06661V4.24994C8.99935 4.01982 9.1859 3.83327 9.41602 3.83327Z" fill="#1F2937"/>
</svg>
