<svg width="16" height="16" viewBox="0 0 16 16" fill="none" xmlns="http://www.w3.org/2000/svg">
<path d="M3.70728 9.61148C3.54071 9.53309 3.34213 9.60458 3.26374 9.77115C3.18535 9.93772 3.25684 10.1363 3.42341 10.2147L4.58263 10.7602C4.7492 10.8386 4.94778 10.7671 5.02617 10.6005C5.10455 10.434 5.03306 10.2354 4.86649 10.157L3.70728 9.61148Z" fill="#DFEEFD"/>
<path fill-rule="evenodd" clip-rule="evenodd" d="M7.85807 2.03173C7.94796 1.98942 8.05204 1.98942 8.14193 2.03173L13.8019 4.69522C13.8242 4.70516 13.8453 4.71749 13.8647 4.73189C13.8854 4.74715 13.9041 4.76464 13.9205 4.78394C13.9709 4.84314 14 4.9193 14 5V11.6667C14 11.7958 13.9254 11.9133 13.8086 11.9683L8.14193 14.6349C8.05204 14.6772 7.94796 14.6772 7.85807 14.6349L2.1914 11.9683C2.07457 11.9133 2 11.7958 2 11.6667V5C2 4.89471 2.04882 4.80082 2.12506 4.73973C2.14727 4.72193 2.17181 4.70692 2.19815 4.69522L7.85807 2.03173ZM13.3333 11.4551L8.33333 13.8081V7.8782L9.66674 7.25072V8.33333C9.66674 8.4479 9.72558 8.55444 9.82255 8.61545C9.91952 8.67647 10.041 8.68341 10.1443 8.63383L11.811 7.83383C11.9266 7.77836 12.0001 7.66152 12.0001 7.53333V6.15268L13.3333 5.52526V11.4551ZM11.3334 6.4664L10.3334 6.93699V7.80358L11.3334 7.32358V6.4664ZM10.0651 6.32648L10.8426 5.96059L6.18434 3.63147C6.1599 3.61925 6.13763 3.60444 6.11767 3.58753L5.32924 3.95856L10.0651 6.32648ZM6.87469 3.23129L11.6105 5.5992L12.8838 5L8 2.70173L6.87469 3.23129ZM4.56129 4.31995L3.11618 5L8 7.29827L9.29712 6.68786L4.56129 4.31995ZM2.66667 5.52526L7.66667 7.8782V13.8081L2.66667 11.4551V5.52526Z" fill="#DFEEFD"/>
</svg>
